<?xml version="1.0" encoding="UTF-8" standalone="no"?>
<svg
   width="417.315"
   height="179.00009"
   viewBox="0 0 417.315 179.00009"
   fill="none"
   version="1.1"
   id="svg5"
   sodipodi:docname="distribution.svg"
   inkscape:export-filename="distribution.png"
   inkscape:export-xdpi="96"
   inkscape:export-ydpi="96"
   inkscape:version="1.3.2 (091e20ef0f, 2023-11-25, custom)"
   xmlns:inkscape="http://www.inkscape.org/namespaces/inkscape"
   xmlns:sodipodi="http://sodipodi.sourceforge.net/DTD/sodipodi-0.dtd"
   xmlns="http://www.w3.org/2000/svg"
   xmlns:svg="http://www.w3.org/2000/svg">
  <defs
     id="defs5" />
  <sodipodi:namedview
     id="namedview5"
     pagecolor="#ffffff"
     bordercolor="#000000"
     borderopacity="0.25"
     inkscape:showpageshadow="2"
     inkscape:pageopacity="0.0"
     inkscape:pagecheckerboard="0"
     inkscape:deskcolor="#d1d1d1"
     inkscape:zoom="1.0740741"
     inkscape:cx="288.15517"
     inkscape:cy="81"
     inkscape:window-width="1908"
     inkscape:window-height="1031"
     inkscape:window-x="0"
     inkscape:window-y="0"
     inkscape:window-maximized="1"
     inkscape:current-layer="svg5" />
  <rect
     x="191.8961"
     y="66.112038"
     width="11.688325"
     height="11.688325"
     rx="5.8441625"
     fill="#0082ff"
     id="rect1"
     style="stroke-width:0.974027" />
  <path
     d="m 222.84387,70.008154 h -1.3724 c -0.0818,-0.394773 -0.22403,-0.741624 -0.42663,-1.040456 -0.1987,-0.298831 -0.4422,-0.549741 -0.73051,-0.75263 -0.28442,-0.206689 -0.59903,-0.361559 -0.94579,-0.464904 -0.34773,-0.10334 -0.70909,-0.154968 -1.08507,-0.154968 -0.68668,0 -1.30811,0.173377 -1.86526,0.520228 -0.55325,0.346851 -0.99448,0.857826 -1.32273,1.533021 -0.32435,0.675099 -0.48701,1.503411 -0.48701,2.484841 0,0.981429 0.16266,1.809645 0.48701,2.48484 0.32825,0.675196 0.76948,1.186171 1.32273,1.533021 0.55715,0.346851 1.17858,0.520228 1.86526,0.520228 0.37598,0 0.73734,-0.05163 1.08507,-0.154968 0.34676,-0.10334 0.66137,-0.25646 0.94579,-0.45935 0.28831,-0.206592 0.53181,-0.459351 0.73051,-0.758183 0.2026,-0.302532 0.34481,-0.649384 0.42663,-1.040455 h 1.3724 c -0.10325,0.579253 -0.29221,1.097631 -0.56494,1.555131 -0.27273,0.4575 -0.61266,0.846721 -1.01785,1.167761 -0.40618,0.317241 -0.86202,0.558897 -1.36754,0.724969 -0.50163,0.165974 -1.03831,0.249058 -1.61007,0.249058 -0.96721,0 -1.82629,-0.236201 -2.57922,-0.70841 -0.75292,-0.472305 -1.34415,-1.143702 -1.77662,-2.014482 -0.43149,-0.870684 -0.64676,-1.903737 -0.64676,-3.09916 0,-1.195424 0.21527,-2.228477 0.64676,-3.099159 0.43247,-0.87078 1.0237,-1.542274 1.77662,-2.014483 0.75293,-0.472306 1.61201,-0.70841 2.57922,-0.70841 0.57176,0 1.10844,0.08298 1.61007,0.249059 0.50552,0.166071 0.96136,0.409578 1.36754,0.73052 0.40519,0.317338 0.74512,0.704709 1.01785,1.162209 0.27273,0.453799 0.46169,0.972177 0.56494,1.555132 z m 2.04058,7.792217 v -8.500627 h 1.26137 v 1.283963 h 0.0886 c 0.15488,-0.420586 0.43539,-0.761885 0.84156,-1.023897 0.40617,-0.261917 0.86299,-0.392924 1.3724,-0.392924 0.0955,0 0.21624,0.0018 0.35943,0.0055 0.14415,0.0037 0.25323,0.0093 0.32727,0.01666 v 1.328183 c -0.0448,-0.01106 -0.14611,-0.02767 -0.30488,-0.04977 -0.15487,-0.02581 -0.31947,-0.03876 -0.49285,-0.03876 -0.41299,0 -0.78214,0.08669 -1.10649,0.260065 -0.32143,0.169772 -0.57565,0.405877 -0.76365,0.70841 -0.18409,0.298831 -0.27662,0.64013 -0.27662,1.0238 v 5.379356 z m 8.9932,0.177077 c -0.76753,0 -1.44059,-0.182629 -2.02013,-0.547889 -0.57565,-0.365261 -1.02565,-0.876235 -1.35,-1.533022 -0.32143,-0.656689 -0.48215,-1.424124 -0.48215,-2.30221 0,-0.885488 0.16072,-1.658476 0.48215,-2.318867 0.32435,-0.66039 0.77435,-1.173216 1.35,-1.538476 0.57954,-0.36526 1.2526,-0.547889 2.02013,-0.547889 0.76753,0 1.43863,0.182629 2.01428,0.547889 0.57956,0.36526 1.02956,0.878086 1.35001,1.538476 0.32533,0.660391 0.48701,1.433379 0.48701,2.318867 0,0.878086 -0.16168,1.645521 -0.48701,2.30221 -0.32045,0.656787 -0.77045,1.167761 -1.35001,1.533022 -0.57565,0.36526 -1.24675,0.547889 -2.01428,0.547889 z m 0,-1.173313 c 0.58247,0 1.06267,-0.149415 1.43863,-0.448247 0.37598,-0.298831 0.65455,-0.691754 0.83572,-1.178768 0.18118,-0.487012 0.27078,-1.014644 0.27078,-1.582793 0,-0.56815 -0.0896,-1.097631 -0.27078,-1.588346 -0.18117,-0.490715 -0.45974,-0.887339 -0.83572,-1.189872 -0.37596,-0.302532 -0.85616,-0.453799 -1.43863,-0.453799 -0.58344,0 -1.06267,0.151267 -1.43863,0.453799 -0.37695,0.302533 -0.65552,0.699157 -0.83572,1.189872 -0.18117,0.490715 -0.27176,1.020196 -0.27176,1.588346 0,0.568149 0.0906,1.095781 0.27176,1.582793 0.1802,0.487014 0.45877,0.879937 0.83572,1.178768 0.37596,0.298832 0.85519,0.448247 1.43863,0.448247 z m 7.48247,0.996236 -2.58994,-8.500627 h 1.37241 l 1.83702,6.508254 h 0.0886 l 1.81559,-6.508254 h 1.39383 l 1.79319,6.486143 h 0.0886 l 1.83799,-6.486143 h 1.3724 l -2.58994,8.500627 h -1.28473 l -1.85943,-6.530462 h -0.13246 l -1.85941,6.530462 z m 13.65684,0.177077 c -0.70811,0 -1.33345,-0.178928 -1.87598,-0.536786 -0.54253,-0.361656 -0.96721,-0.87078 -1.27305,-1.527469 -0.30585,-0.660488 -0.45974,-1.44078 -0.45974,-2.340977 0,-0.892891 0.15389,-1.66773 0.45974,-2.324418 0.30584,-0.656689 0.73247,-1.16406 1.2789,-1.521917 0.54545,-0.357858 1.17662,-0.536786 1.89253,-0.536786 0.55325,0 0.99059,0.09224 1.31104,0.276721 0.32533,0.180779 0.57176,0.38737 0.74221,0.619773 0.17337,0.228799 0.30779,0.416981 0.40324,0.564546 h 0.11104 v -4.183933 h 1.30616 v 11.334169 h -1.26136 v -1.306074 h -0.15585 c -0.0955,0.154968 -0.23181,0.350456 -0.40908,0.58656 -0.17728,0.2325 -0.42955,0.440942 -0.7578,0.625423 -0.32922,0.180779 -0.76559,0.271168 -1.31201,0.271168 z m 0.17728,-1.173313 c 0.52402,0 0.96622,-0.136461 1.32759,-0.40948 0.36234,-0.276722 0.63701,-0.65854 0.825,-1.145554 0.18799,-0.490714 0.28247,-1.057111 0.28247,-1.699092 0,-0.63458 -0.0925,-1.189872 -0.27662,-1.665782 -0.18507,-0.479611 -0.4578,-0.852273 -0.81916,-1.117891 -0.36137,-0.269318 -0.80844,-0.404026 -1.33928,-0.404026 -0.55326,0 -1.01495,0.142013 -1.3841,0.426136 -0.36526,0.280423 -0.63993,0.662241 -0.82402,1.145554 -0.18118,0.479709 -0.27176,1.018346 -0.27176,1.616009 0,0.605162 0.0925,1.154806 0.27662,1.649222 0.18897,0.490715 0.46559,0.881786 0.83084,1.173313 0.36819,0.287727 0.82598,0.431591 1.37242,0.431591 z m 12.31364,-5.600655 -1.1737,0.332143 c -0.073,-0.195585 -0.18214,-0.385618 -0.32629,-0.570098 -0.14027,-0.188182 -0.33215,-0.343053 -0.57565,-0.464805 -0.24352,-0.121754 -0.55521,-0.182631 -0.93508,-0.182631 -0.52013,0 -0.95356,0.119903 -1.30033,0.359708 -0.34382,0.236104 -0.51525,0.536786 -0.51525,0.902047 0,0.324642 0.11883,0.581104 0.35455,0.769287 0.23571,0.188181 0.60486,0.345 1.10649,0.470357 l 1.26234,0.309935 c 0.75974,0.184482 1.32565,0.466755 1.6987,0.846723 0.37305,0.376363 0.55909,0.861526 0.55909,1.455586 0,0.487012 -0.14026,0.922306 -0.42077,1.306072 -0.27663,0.38367 -0.66429,0.686203 -1.16202,0.907599 -0.49773,0.221396 -1.07728,0.332045 -1.73766,0.332045 -0.86689,0 -1.58475,-0.188181 -2.15261,-0.564546 -0.56882,-0.376267 -0.92825,-0.926007 -1.07922,-1.649125 l 1.23897,-0.309935 c 0.11882,0.4575 0.34188,0.80065 0.67013,1.029352 0.33214,0.228798 0.76559,0.34315 1.30032,0.34315 0.60877,0 1.09189,-0.129156 1.45033,-0.387469 0.36136,-0.261915 0.54253,-0.575553 0.54253,-0.940813 0,-0.29513 -0.10325,-0.542338 -0.31071,-0.741527 -0.2065,-0.202986 -0.52305,-0.354253 -0.95163,-0.453799 l -1.41624,-0.332045 c -0.77921,-0.184481 -1.35097,-0.470456 -1.71623,-0.857826 -0.36136,-0.391072 -0.54253,-0.879936 -0.54253,-1.466593 0,-0.47961 0.13539,-0.903897 0.40422,-1.272858 0.27273,-0.368961 0.64383,-0.658637 1.11234,-0.86893 0.4724,-0.210292 1.00714,-0.315389 1.60519,-0.315389 0.84156,0 1.50196,0.18448 1.98117,0.553344 0.48312,0.368961 0.82695,0.855975 1.02955,1.461041 z m 4.62273,6.796078 c -0.53864,0 -1.02759,-0.101399 -1.46688,-0.304383 -0.43928,-0.20659 -0.78799,-0.503571 -1.04611,-0.89104 -0.25811,-0.391071 -0.38766,-0.863279 -0.38766,-1.416722 0,-0.487014 0.0964,-0.881787 0.28831,-1.184319 0.19189,-0.306234 0.44805,-0.546039 0.76948,-0.719417 0.32046,-0.173474 0.67501,-0.302533 1.06169,-0.387468 0.39156,-0.08854 0.78409,-0.158571 1.17955,-0.210292 0.51624,-0.06643 0.93507,-0.116202 1.25552,-0.149416 0.32533,-0.03692 0.56105,-0.09779 0.70909,-0.182631 0.15098,-0.08483 0.22695,-0.232402 0.22695,-0.442694 v -0.04432 c 0,-0.54604 -0.15,-0.970326 -0.44903,-1.272858 -0.29512,-0.302534 -0.74317,-0.453801 -1.34416,-0.453801 -0.62337,0 -1.11233,0.136462 -1.46688,0.409482 -0.35454,0.27302 -0.60292,0.564546 -0.74708,0.874481 l -1.23994,-0.442786 c 0.22209,-0.516527 0.51721,-0.918703 0.8854,-1.206431 0.37305,-0.291526 0.77922,-0.494415 1.21753,-0.608767 0.44319,-0.118051 0.87857,-0.177077 1.30618,-0.177077 0.27369,0 0.58734,0.03321 0.9409,0.09955 0.35844,0.06273 0.70325,0.193735 1.03539,0.392923 0.33507,0.199286 0.61365,0.499968 0.83572,0.902144 0.2211,0.402175 0.33215,0.940812 0.33215,1.616008 v 5.600656 h -1.30618 v -1.151106 h -0.0673 c -0.0877,0.184481 -0.23572,0.381819 -0.44221,0.592111 -0.2065,0.210293 -0.48116,0.389221 -0.825,0.536787 -0.34286,0.147663 -0.76168,0.221396 -1.25552,0.221396 z m 0.1987,-1.173214 c 0.51624,0 0.95163,-0.10149 1.30618,-0.304385 0.35746,-0.202986 0.62727,-0.464902 0.80844,-0.785844 0.18409,-0.32104 0.27662,-0.658637 0.27662,-1.012794 v -1.195423 c -0.0555,0.06643 -0.17727,0.127305 -0.36526,0.18263 -0.18507,0.05163 -0.39837,0.09779 -0.64188,0.138409 -0.24058,0.03682 -0.47436,0.07003 -0.70324,0.09955 -0.22501,0.02581 -0.40813,0.04801 -0.54839,0.06643 -0.33895,0.04431 -0.65649,0.116202 -0.95162,0.215844 -0.29124,0.09594 -0.52695,0.241657 -0.70812,0.437241 -0.17728,0.191786 -0.26591,0.453799 -0.26591,0.785845 0,0.453799 0.16851,0.796949 0.50358,1.029352 0.33993,0.228799 0.76947,0.34315 1.2896,0.34315 z m 7.38703,-10.360142 v 11.334169 h -1.30617 V 66.466202 Z m 5.95617,11.511246 c -0.81915,0 -1.52532,-0.180779 -2.11948,-0.542338 -0.59026,-0.36526 -1.04611,-0.874481 -1.36754,-1.527469 -0.31655,-0.656689 -0.47532,-1.420424 -0.47532,-2.291204 0,-0.870683 0.15877,-1.638118 0.47532,-2.30221 0.32143,-0.667793 0.76754,-1.188022 1.3393,-1.560684 0.57565,-0.376364 1.24772,-0.564448 2.01526,-0.564448 0.4422,0 0.87954,0.07373 1.31104,0.221299 0.43149,0.147662 0.825,0.387467 1.17857,0.719514 0.35455,0.328344 0.63701,0.763734 0.84741,1.306072 0.21038,0.542339 0.31558,1.210132 0.31558,2.003378 v 0.553443 h -6.55326 v -1.128994 h 5.22469 c 0,-0.479612 -0.0955,-0.9076 -0.28734,-1.283963 -0.18897,-0.376364 -0.45779,-0.673345 -0.80845,-0.89104 -0.34675,-0.217598 -0.75681,-0.326494 -1.22824,-0.326494 -0.52013,0 -0.97111,0.129155 -1.35098,0.387371 -0.37597,0.25461 -0.66526,0.586656 -0.86883,0.996235 -0.2026,0.40948 -0.30389,0.848572 -0.30389,1.317079 v 0.752728 c 0,0.641981 0.11002,1.18617 0.33213,1.632567 0.22501,0.442695 0.53669,0.780293 0.93507,1.012794 0.39838,0.228701 0.86104,0.343051 1.38896,0.343051 0.34286,0 0.6526,-0.04792 0.9302,-0.143864 0.27954,-0.09964 0.52207,-0.247207 0.72468,-0.442695 0.2026,-0.199286 0.35941,-0.446494 0.47045,-0.741624 l 1.26136,0.354157 c -0.13246,0.427987 -0.35552,0.804351 -0.66915,1.128994 -0.31364,0.32104 -0.7013,0.571949 -1.16202,0.752729 -0.46169,0.177077 -0.97987,0.265616 -1.55552,0.265616 z m 9.8893,-0.177077 v -8.500627 h 1.30617 v 8.500627 z m 0.66429,-9.91735 c -0.25422,0 -0.47436,-0.08679 -0.65844,-0.260163 -0.18117,-0.173376 -0.27078,-0.381818 -0.27078,-0.625325 0,-0.243506 0.0896,-0.451948 0.27078,-0.625423 0.18408,-0.173376 0.40422,-0.260065 0.65844,-0.260065 0.25519,0 0.4724,0.08669 0.65356,0.260065 0.1841,0.173475 0.27663,0.381917 0.27663,0.625423 0,0.243507 -0.0925,0.451949 -0.27663,0.625325 -0.18116,0.173378 -0.39837,0.260163 -0.65356,0.260163 z m 4.34027,4.803707 v 5.113643 h -1.30618 v -8.500627 h 1.26234 v 1.328183 h 0.11002 c 0.19967,-0.431591 0.50259,-0.778442 0.9078,-1.040358 0.40616,-0.265715 0.93018,-0.398474 1.57207,-0.398474 0.57565,0 1.07923,0.118051 1.51072,0.354156 0.43149,0.232403 0.76753,0.586657 1.00714,1.062566 0.23962,0.472306 0.35942,1.069969 0.35942,1.793086 v 5.401468 h -1.30617 v -5.312929 c 0,-0.667793 -0.17337,-1.188021 -0.52014,-1.560586 -0.34675,-0.376364 -0.82207,-0.564546 -1.42792,-0.564546 -0.41688,0 -0.78896,0.09039 -1.11721,0.271169 -0.32532,0.18078 -0.58149,0.444644 -0.76947,0.791397 -0.188,0.346851 -0.28247,0.767437 -0.28247,1.261852 z m 14.45747,-3.386984 -3.14415,8.500627 h -1.3276 l -3.14416,-8.500627 h 1.41721 l 2.34643,6.773871 h 0.0887 l 2.34644,-6.773871 z m 4.98313,8.677704 c -0.81916,0 -1.52533,-0.180779 -2.11948,-0.542338 -0.59027,-0.36526 -1.04611,-0.874481 -1.36754,-1.527469 -0.31655,-0.656689 -0.47532,-1.420424 -0.47532,-2.291204 0,-0.870683 0.15877,-1.638118 0.47532,-2.30221 0.32143,-0.667793 0.76754,-1.188022 1.33929,-1.560684 0.57565,-0.376364 1.24773,-0.564448 2.01526,-0.564448 0.44221,0 0.87955,0.07373 1.31104,0.221299 0.4315,0.147662 0.825,0.387467 1.17858,0.719514 0.35454,0.328344 0.63701,0.763734 0.8474,1.306072 0.21038,0.542339 0.31559,1.210132 0.31559,2.003378 v 0.553443 h -6.55327 v -1.128994 h 5.22469 c 0,-0.479612 -0.0955,-0.9076 -0.28734,-1.283963 -0.18896,-0.376364 -0.4578,-0.673345 -0.80844,-0.89104 -0.34675,-0.217598 -0.75682,-0.326494 -1.22825,-0.326494 -0.52013,0 -0.9711,0.129155 -1.35097,0.387371 -0.37598,0.25461 -0.66527,0.586656 -0.86883,0.996235 -0.2026,0.40948 -0.30391,0.848572 -0.30391,1.317079 v 0.752728 c 0,0.641981 0.11002,1.18617 0.33215,1.632567 0.22499,0.442695 0.53669,0.780293 0.93506,1.012794 0.39838,0.228701 0.86105,0.343051 1.38897,0.343051 0.34286,0 0.65259,-0.04792 0.9302,-0.143864 0.27954,-0.09964 0.52207,-0.247207 0.72466,-0.442695 0.20261,-0.199286 0.35943,-0.446494 0.47046,-0.741624 l 1.26137,0.354157 c -0.13247,0.427987 -0.35552,0.804351 -0.66915,1.128994 -0.31364,0.32104 -0.7013,0.571949 -1.16202,0.752729 -0.46169,0.177077 -0.97987,0.265616 -1.55552,0.265616 z m 11.52761,-6.773968 -1.17273,0.332143 c -0.074,-0.195585 -0.18312,-0.385618 -0.32727,-0.570098 -0.13928,-0.188182 -0.33117,-0.343053 -0.57468,-0.464805 -0.2435,-0.121754 -0.55617,-0.182631 -0.93604,-0.182631 -0.52013,0 -0.95357,0.119903 -1.30033,0.359708 -0.34285,0.236104 -0.51428,0.536786 -0.51428,0.902047 0,0.324642 0.11786,0.581104 0.35356,0.769287 0.2367,0.188181 0.60585,0.345 1.10748,0.470357 l 1.26136,0.309935 c 0.75974,0.184482 1.32662,0.466755 1.69871,0.846723 0.37305,0.376363 0.55909,0.861526 0.55909,1.455586 0,0.487012 -0.14026,0.922306 -0.42078,1.306072 -0.27662,0.38367 -0.66331,0.686203 -1.16201,0.907599 -0.49773,0.221396 -1.07728,0.332045 -1.73767,0.332045 -0.86688,0 -1.58474,-0.188181 -2.1526,-0.564546 -0.56785,-0.376267 -0.92825,-0.926007 -1.07922,-1.649125 l 1.23994,-0.309935 c 0.11785,0.4575 0.34091,0.80065 0.66915,1.029352 0.33215,0.228798 0.76559,0.34315 1.30033,0.34315 0.60877,0 1.09286,-0.129156 1.45032,-0.387469 0.36136,-0.261915 0.54254,-0.575553 0.54254,-0.940813 0,-0.29513 -0.10325,-0.542338 -0.30974,-0.741527 -0.2065,-0.202986 -0.52403,-0.354253 -0.95261,-0.453799 l -1.41623,-0.332045 c -0.77824,-0.184481 -1.35,-0.470456 -1.71525,-0.857826 -0.36235,-0.391072 -0.54255,-0.879936 -0.54255,-1.466593 0,-0.47961 0.13442,-0.903897 0.40422,-1.272858 0.27274,-0.368961 0.64384,-0.658637 1.11235,-0.86893 0.47143,-0.210292 1.00715,-0.315389 1.60422,-0.315389 0.84157,0 1.50195,0.18448 1.98117,0.553344 0.4841,0.368961 0.82695,0.855975 1.02955,1.461041 z m 5.81786,-1.903736 v 1.106884 h -4.40553 v -1.106884 z m -3.12078,-2.036593 h 1.30616 v 8.102152 c 0,0.368961 0.0536,0.645683 0.15975,0.830066 0.11104,0.180877 0.2513,0.302629 0.42078,0.36526 0.17338,0.05912 0.3565,0.08864 0.54837,0.08864 0.14319,0 0.26202,-0.0074 0.35358,-0.02221 0.0925,-0.01841 0.16656,-0.03322 0.22207,-0.04422 l 0.26495,1.173216 c -0.0886,0.03321 -0.21137,0.06643 -0.37014,0.09964 -0.15876,0.03691 -0.36039,0.05533 -0.60389,0.05533 -0.36819,0 -0.73053,-0.07928 -1.08409,-0.237954 -0.35066,-0.158669 -0.64189,-0.400325 -0.87468,-0.724969 -0.2289,-0.32474 -0.34286,-0.734221 -0.34286,-1.228638 z m 8.44774,10.714297 c -0.76754,0 -1.4406,-0.182629 -2.02014,-0.547889 -0.57565,-0.365261 -1.02565,-0.876235 -1.35,-1.533022 -0.32143,-0.656689 -0.48214,-1.424124 -0.48214,-2.30221 0,-0.885488 0.16071,-1.658476 0.48214,-2.318867 0.32435,-0.66039 0.77435,-1.173216 1.35,-1.538476 0.57954,-0.36526 1.2526,-0.547889 2.02014,-0.547889 0.76753,0 1.43864,0.182629 2.01429,0.547889 0.57954,0.36526 1.02954,0.878086 1.35097,1.538476 0.32435,0.660391 0.48701,1.433379 0.48701,2.318867 0,0.878086 -0.16266,1.645521 -0.48701,2.30221 -0.32143,0.656787 -0.77143,1.167761 -1.35097,1.533022 -0.57565,0.36526 -1.24676,0.547889 -2.01429,0.547889 z m 0,-1.173313 c 0.58246,0 1.06266,-0.149415 1.43864,-0.448247 0.37694,-0.298831 0.65552,-0.691754 0.83571,-1.178768 0.18117,-0.487012 0.27176,-1.014644 0.27176,-1.582793 0,-0.56815 -0.0906,-1.097631 -0.27176,-1.588346 -0.18019,-0.490715 -0.45877,-0.887339 -0.83571,-1.189872 -0.37598,-0.302532 -0.85618,-0.453799 -1.43864,-0.453799 -0.58345,0 -1.06267,0.151267 -1.43864,0.453799 -0.37695,0.302533 -0.65552,0.699157 -0.83572,1.189872 -0.18117,0.490715 -0.27175,1.020196 -0.27175,1.588346 0,0.568149 0.0906,1.095781 0.27175,1.582793 0.1802,0.487014 0.45877,0.879937 0.83572,1.178768 0.37597,0.298832 0.85519,0.448247 1.43864,0.448247 z m 5.84513,0.996236 v -8.500627 h 1.26234 v 1.283963 h 0.0887 c 0.15488,-0.420586 0.43539,-0.761885 0.84059,-1.023897 0.40616,-0.261917 0.86396,-0.392924 1.3724,-0.392924 0.0965,0 0.21624,0.0018 0.3604,0.0055 0.14415,0.0037 0.25227,0.0093 0.32629,0.01666 v 1.328183 c -0.0438,-0.01106 -0.1461,-0.02767 -0.30389,-0.04977 -0.15585,-0.02581 -0.31948,-0.03876 -0.49286,-0.03876 -0.41299,0 -0.78214,0.08669 -1.10747,0.260065 -0.32045,0.169772 -0.57467,0.405877 -0.76364,0.70841 -0.18409,0.298831 -0.27662,0.64013 -0.27662,1.0238 v 5.379356 z m 11.81982,-6.596891 -1.17273,0.332143 c -0.074,-0.195585 -0.18311,-0.385618 -0.32629,-0.570098 -0.14027,-0.188182 -0.33215,-0.343053 -0.57565,-0.464805 -0.24352,-0.121754 -0.5552,-0.182631 -0.93605,-0.182631 -0.52013,0 -0.95357,0.119903 -1.30033,0.359708 -0.34286,0.236104 -0.51428,0.536786 -0.51428,0.902047 0,0.324642 0.11786,0.581104 0.35357,0.769287 0.23669,0.188181 0.60585,0.345 1.10748,0.470357 l 1.26136,0.309935 c 0.76071,0.184482 1.32662,0.466755 1.69968,0.846723 0.37207,0.376363 0.55811,0.861526 0.55811,1.455586 0,0.487012 -0.14026,0.922306 -0.4198,1.306072 -0.27662,0.38367 -0.66429,0.686203 -1.16299,0.907599 -0.49772,0.221396 -1.07728,0.332045 -1.73766,0.332045 -0.8669,0 -1.58475,-0.188181 -2.1526,-0.564546 -0.56786,-0.376267 -0.92826,-0.926007 -1.07923,-1.649125 l 1.23994,-0.309935 c 0.11786,0.4575 0.3409,0.80065 0.66916,1.029352 0.33214,0.228798 0.76558,0.34315 1.3013,0.34315 0.60876,0 1.09188,-0.129156 1.44935,-0.387469 0.36136,-0.261915 0.54253,-0.575553 0.54253,-0.940813 0,-0.29513 -0.10325,-0.542338 -0.30974,-0.741527 -0.20649,-0.202986 -0.52402,-0.354253 -0.95163,-0.453799 l -1.41721,-0.332045 c -0.77824,-0.184481 -1.35,-0.470456 -1.71526,-0.857826 -0.36233,-0.391072 -0.54253,-0.879936 -0.54253,-1.466593 0,-0.47961 0.13442,-0.903897 0.40422,-1.272858 0.27273,-0.368961 0.64383,-0.658637 1.11234,-0.86893 0.47241,-0.210292 1.00714,-0.315389 1.60422,-0.315389 0.84156,0 1.50196,0.18448 1.98215,0.553344 0.48311,0.368961 0.82597,0.855975 1.02857,1.461041 z m 3.07306,6.685429 c -0.27273,0 -0.50748,-0.09779 -0.70227,-0.293376 -0.19578,-0.195488 -0.29416,-0.429742 -0.29416,-0.702761 0,-0.27302 0.0984,-0.507371 0.29416,-0.702858 0.19479,-0.195585 0.42954,-0.293377 0.70227,-0.293377 0.27272,0 0.50747,0.09779 0.70325,0.293377 0.19578,0.195487 0.29318,0.429838 0.29318,0.702858 0,0.180779 -0.0458,0.346753 -0.13832,0.49802 -0.0887,0.151266 -0.20844,0.27302 -0.35941,0.36526 -0.14805,0.08854 -0.31363,0.132857 -0.4987,0.132857 z m 0,-6.309065 c -0.27273,0 -0.50748,-0.09779 -0.70227,-0.29328 -0.19578,-0.195584 -0.29416,-0.429838 -0.29416,-0.702857 0,-0.27302 0.0984,-0.507274 0.29416,-0.702859 0.19479,-0.195585 0.42954,-0.293279 0.70227,-0.293279 0.27272,0 0.50747,0.0977 0.70325,0.293279 0.19578,0.195585 0.29318,0.429839 0.29318,0.702859 0,0.180779 -0.0458,0.346753 -0.13832,0.498019 -0.0887,0.151365 -0.20844,0.273117 -0.35941,0.36526 -0.14805,0.08864 -0.31363,0.132858 -0.4987,0.132858 z m 11.33183,6.375494 c -0.76071,0 -1.43182,-0.134708 -2.01429,-0.404027 -0.57955,-0.273019 -1.0315,-0.647532 -1.35682,-1.123442 -0.32435,-0.479611 -0.48506,-1.025651 -0.48117,-1.638119 -0.003,-0.479709 0.0906,-0.922404 0.28247,-1.32828 0.19188,-0.409482 0.4539,-0.75078 0.78604,-1.0238 0.33506,-0.276722 0.71007,-0.451949 1.12305,-0.52578 v -0.06643 c -0.54253,-0.140163 -0.97402,-0.444546 -1.29448,-0.913151 -0.32143,-0.472208 -0.4802,-1.008994 -0.4763,-1.610456 -0.003,-0.575552 0.14221,-1.090228 0.43734,-1.544027 0.29513,-0.4538 0.70129,-0.811657 1.21753,-1.07367 0.52013,-0.261917 1.11234,-0.392923 1.77663,-0.392923 0.6565,0 1.24285,0.131006 1.76006,0.392923 0.51624,0.262013 0.92143,0.61987 1.21754,1.07367 0.29805,0.453799 0.45,0.968475 0.45293,1.544027 -0.003,0.601462 -0.16754,1.138248 -0.49189,1.610456 -0.32143,0.468605 -0.74708,0.772988 -1.2789,0.913151 v 0.06643 c 0.41006,0.07383 0.77824,0.249058 1.10747,0.52578 0.32824,0.27302 0.59026,0.614318 0.78506,1.0238 0.19578,0.405876 0.29514,0.848571 0.29903,1.32828 -0.003,0.612468 -0.16948,1.158508 -0.49772,1.638119 -0.32435,0.47591 -0.77631,0.850423 -1.35585,1.123442 -0.57565,0.269319 -1.24189,0.404027 -1.99773,0.404027 z m 0,-1.217534 c 0.51234,0 0.95552,-0.08309 1.3276,-0.249059 0.37305,-0.166071 0.66039,-0.400324 0.86396,-0.702858 0.20259,-0.302533 0.30584,-0.656688 0.30974,-1.062566 -0.003,-0.427987 -0.11493,-0.806202 -0.33214,-1.134547 -0.21819,-0.328344 -0.51429,-0.586656 -0.89123,-0.774741 -0.37209,-0.188181 -0.79871,-0.282273 -1.27793,-0.282273 -0.48409,0 -0.91559,0.09409 -1.29546,0.282273 -0.37598,0.188085 -0.67305,0.446397 -0.89123,0.774741 -0.21332,0.328345 -0.31851,0.70656 -0.31462,1.134547 -0.003,0.405878 0.0935,0.760033 0.29319,1.062566 0.20259,0.302534 0.49189,0.536787 0.86883,0.702858 0.37598,0.165975 0.82208,0.249059 1.33929,0.249059 z m 0,-5.379357 c 0.4052,0 0.76558,-0.08113 1.07922,-0.243506 0.31656,-0.162273 0.56591,-0.389221 0.74708,-0.68065 0.1802,-0.291526 0.27273,-0.632729 0.27662,-1.023897 -0.003,-0.383669 -0.0945,-0.717566 -0.27175,-1.00169 -0.1763,-0.287728 -0.42175,-0.509124 -0.73539,-0.664092 -0.31363,-0.158669 -0.6789,-0.237954 -1.09578,-0.237954 -0.42467,0 -0.79579,0.07928 -1.11234,0.237954 -0.31754,0.154968 -0.56299,0.376364 -0.73637,0.664092 -0.17337,0.284124 -0.25811,0.618021 -0.25422,1.00169 -0.003,0.391168 0.0828,0.732371 0.26007,1.023897 0.18019,0.291429 0.42955,0.518377 0.74707,0.68065 0.31657,0.16237 0.68183,0.243506 1.09579,0.243506 z m 9.66916,6.596891 c -0.83376,0 -1.54383,-0.226948 -2.13019,-0.680747 -0.58734,-0.457501 -1.0354,-1.119743 -1.34514,-1.98682 -0.30973,-0.870683 -0.46461,-1.922244 -0.46461,-3.154485 0,-1.224936 0.15488,-2.270847 0.46461,-3.137926 0.31365,-0.870683 0.76365,-1.534872 1.35001,-1.992372 0.59026,-0.461104 1.29934,-0.691754 2.12532,-0.691754 0.82695,0 1.53312,0.23065 2.11948,0.691754 0.59027,0.4575 1.04125,1.121689 1.35099,1.992372 0.31363,0.867079 0.47044,1.91299 0.47044,3.137926 0,1.232241 -0.15486,2.283802 -0.46558,3.154485 -0.30974,0.867077 -0.75779,1.529319 -1.34416,1.98682 -0.58734,0.453799 -1.29739,0.680747 -2.13117,0.680747 z m 0,-1.217534 c 0.82695,0 1.46884,-0.398474 1.92662,-1.195423 0.45683,-0.796949 0.68572,-1.933346 0.68572,-3.409095 0,-0.98143 -0.10517,-1.817048 -0.31558,-2.507048 -0.20649,-0.689904 -0.50552,-1.215684 -0.8961,-1.577243 -0.38767,-0.361559 -0.85422,-0.542337 -1.40066,-0.542337 -0.81915,0 -1.45908,0.404025 -1.91981,1.211981 -0.46169,0.804351 -0.69253,1.942503 -0.69253,3.414647 0,0.981429 0.10325,1.815197 0.31072,2.501497 0.20649,0.686201 0.50357,1.20828 0.89026,1.566138 0.39156,0.357954 0.86202,0.536883 1.41136,0.536883 z m 11.82177,-1.062566 v -0.59776 c 0,-0.413183 0.0847,-0.791397 0.25422,-1.134547 0.17338,-0.346753 0.42468,-0.623475 0.75292,-0.830066 0.33215,-0.210293 0.73345,-0.315487 1.20585,-0.315487 0.4802,0 0.88247,0.105191 1.20682,0.315487 0.32435,0.206591 0.5698,0.483313 0.73637,0.830066 0.16558,0.34315 0.24837,0.721364 0.24837,1.134547 v 0.59776 c 0,0.413183 -0.0847,0.793248 -0.25422,1.140001 -0.16558,0.34315 -0.41299,0.619871 -0.74123,0.830164 -0.32532,0.20659 -0.72371,0.309935 -1.19611,0.309935 -0.47922,0 -0.88344,-0.10334 -1.21169,-0.309935 -0.32825,-0.210293 -0.57759,-0.487014 -0.74708,-0.830164 -0.16948,-0.346753 -0.25422,-0.726818 -0.25422,-1.140001 z m 1.1289,-0.59776 v 0.59776 c 0,0.343052 0.0808,0.651138 0.24351,0.924157 0.16168,0.269318 0.4422,0.404026 0.84058,0.404026 0.38767,0 0.66039,-0.134708 0.81916,-0.404026 0.16266,-0.273019 0.2435,-0.581105 0.2435,-0.924157 v -0.59776 c 0,-0.34315 -0.077,-0.649287 -0.23182,-0.918703 -0.15486,-0.27302 -0.43246,-0.40948 -0.83084,-0.40948 -0.38669,0 -0.66526,0.13646 -0.83572,0.40948 -0.16558,0.269416 -0.24837,0.575553 -0.24837,0.918703 z m -6.77436,-5.888383 v -0.597762 c 0,-0.413181 0.0847,-0.791396 0.2552,-1.134449 0.17337,-0.346851 0.4237,-0.623571 0.75194,-0.830163 0.33215,-0.210292 0.73442,-0.315487 1.20683,-0.315487 0.47921,0 0.88148,0.105191 1.20682,0.315487 0.32435,0.206592 0.5698,0.483312 0.73539,0.830163 0.16655,0.343053 0.24934,0.721268 0.24934,1.134449 v 0.597762 c 0,0.413181 -0.0847,0.793247 -0.25422,1.14 -0.16655,0.343151 -0.41396,0.619872 -0.7422,0.830164 -0.32436,0.206591 -0.72273,0.309936 -1.19513,0.309936 -0.4802,0 -0.88345,-0.103341 -1.21169,-0.309936 -0.32923,-0.210292 -0.57761,-0.487013 -0.74708,-0.830164 -0.17046,-0.346753 -0.2552,-0.726819 -0.2552,-1.14 z m 1.1289,-0.597762 v 0.597762 c 0,0.343051 0.0818,0.651136 0.24351,0.924156 0.16266,0.269319 0.44317,0.404027 0.84156,0.404027 0.38765,0 0.66038,-0.134708 0.81915,-0.404027 0.16169,-0.27302 0.24351,-0.581105 0.24351,-0.924156 v -0.597762 c 0,-0.343051 -0.078,-0.649285 -0.23279,-0.918701 -0.15488,-0.27302 -0.4315,-0.409481 -0.82987,-0.409481 -0.38767,0 -0.66624,0.136461 -0.83572,0.409481 -0.16656,0.269416 -0.24935,0.57565 -0.24935,0.918701 z m -0.70812,9.209038 7.79222,-11.334169 h 1.26136 l -7.79221,11.334169 z"
     fill="#202020"
     id="path1"
     style="stroke-width:0.974027" />
  <rect
     x="191.8961"
     y="101.17712"
     width="11.688325"
     height="11.688325"
     rx="5.8441625"
     fill="#faa002"
     id="rect2"
     style="stroke-width:0.974027" />
  <path
     d="m 213.72308,112.86544 v -11.33377 h 6.79578 v 1.21752 h -5.42338 v 3.82891 h 4.91494 v 1.21753 h -4.91494 v 5.06981 z m 11.79937,0.17727 c -0.76754,0 -1.44059,-0.18312 -2.02014,-0.54837 -0.57565,-0.36526 -1.02565,-0.87565 -1.35097,-1.53312 -0.32046,-0.65649 -0.48118,-1.42403 -0.48118,-2.30162 0,-0.8854 0.16072,-1.65877 0.48118,-2.31917 0.32532,-0.66039 0.77532,-1.1737 1.35097,-1.53895 0.57955,-0.36527 1.2526,-0.54741 2.02014,-0.54741 0.76752,0 1.43864,0.18214 2.01429,0.54741 0.57954,0.36525 1.02954,0.87856 1.34999,1.53895 0.32533,0.6604 0.48702,1.43377 0.48702,2.31917 0,0.87759 -0.16169,1.64513 -0.48702,2.30162 -0.32045,0.65747 -0.77045,1.16786 -1.34999,1.53312 -0.57565,0.36525 -1.24677,0.54837 -2.01429,0.54837 z m 0,-1.1737 c 0.58246,0 1.06266,-0.14903 1.43864,-0.44804 0.37596,-0.29903 0.65454,-0.69156 0.8357,-1.17858 0.18118,-0.48701 0.27079,-1.01494 0.27079,-1.58279 0,-0.56884 -0.0896,-1.09774 -0.27079,-1.58864 -0.18116,-0.49092 -0.45974,-0.88734 -0.8357,-1.19027 -0.37598,-0.30195 -0.85618,-0.45292 -1.43864,-0.45292 -0.58345,0 -1.06266,0.15097 -1.43962,0.45292 -0.37597,0.30293 -0.65454,0.69935 -0.83474,1.19027 -0.18116,0.4909 -0.27175,1.0198 -0.27175,1.58864 0,0.56785 0.0906,1.09578 0.27175,1.58279 0.1802,0.48702 0.45877,0.87955 0.83474,1.17858 0.37696,0.29901 0.85617,0.44804 1.43962,0.44804 z m 11.20228,-2.4789 v -5.025 h 1.30617 v 8.50033 h -1.30617 v -1.43864 h -0.0886 c -0.1987,0.43149 -0.50845,0.7987 -0.92922,1.10066 -0.42078,0.29903 -0.9526,0.44903 -1.59449,0.44903 -0.53084,0 -1.00324,-0.1169 -1.41623,-0.34871 -0.41298,-0.23669 -0.73831,-0.59123 -0.97402,-1.06266 -0.2367,-0.4763 -0.35455,-1.0763 -0.35455,-1.79903 v -5.40098 h 1.30616 v 5.31234 c 0,0.62046 0.17339,1.11429 0.52014,1.48345 0.35065,0.36915 0.79675,0.55324 1.33929,0.55324 0.32435,0 0.65454,-0.0828 0.99058,-0.24935 0.33993,-0.16558 0.62338,-0.4198 0.85228,-0.76364 0.23279,-0.34286 0.34869,-0.78019 0.34869,-1.31104 z m 5.00455,-1.63831 v 5.11364 h -1.30617 v -8.50033 h 1.26136 v 1.3276 h 0.11104 c 0.19967,-0.43149 0.50161,-0.77826 0.90779,-1.04026 0.40617,-0.26591 0.92922,-0.39838 1.57208,-0.39838 0.57467,0 1.07922,0.11785 1.51071,0.35455 0.4315,0.23181 0.76754,0.58636 1.00715,1.06266 0.23961,0.47143 0.35941,1.06948 0.35941,1.79221 v 5.40195 h -1.30616 v -5.31331 c 0,-0.66721 -0.17338,-1.18735 -0.52013,-1.5604 -0.34676,-0.37598 -0.82306,-0.56396 -1.42794,-0.56396 -0.41688,0 -0.78895,0.0896 -1.11818,0.27079 -0.32435,0.18116 -0.58051,0.44415 -0.7685,0.7909 -0.18799,0.34675 -0.28247,0.76754 -0.28247,1.26234 z m 11.02014,5.29091 c -0.70811,0 -1.33344,-0.17921 -1.87598,-0.53668 -0.54253,-0.36234 -0.9672,-0.87078 -1.27304,-1.52825 -0.30585,-0.66039 -0.45974,-1.44059 -0.45974,-2.34059 0,-0.89318 0.15389,-1.66753 0.45974,-2.32403 0.30584,-0.65746 0.73246,-1.16396 1.27792,-1.5224 0.54643,-0.35747 1.1776,-0.53669 1.89351,-0.53669 0.55324,0 0.99058,0.0925 1.31104,0.27662 0.32532,0.18117 0.57175,0.38767 0.7422,0.61948 0.17339,0.2289 0.3078,0.41689 0.40326,0.56494 h 0.11103 v -4.18344 h 1.30618 v 11.33377 h -1.26235 v -1.30616 h -0.15486 c -0.0955,0.15486 -0.23183,0.35064 -0.4091,0.58635 -0.17727,0.2328 -0.42954,0.44124 -0.75877,0.62533 -0.32824,0.18118 -0.76558,0.27175 -1.31104,0.27175 z m 0.17728,-1.1737 c 0.52402,0 0.96624,-0.13636 1.3276,-0.40909 0.36233,-0.27662 0.63701,-0.65844 0.825,-1.14546 0.18799,-0.4909 0.28246,-1.05778 0.28246,-1.69967 0,-0.63409 -0.0925,-1.18928 -0.27662,-1.66559 -0.18506,-0.47922 -0.45779,-0.85227 -0.81915,-1.11818 -0.36235,-0.26883 -0.80845,-0.40325 -1.33929,-0.40325 -0.55423,0 -1.01493,0.14123 -1.3841,0.42565 -0.36525,0.28052 -0.63993,0.66234 -0.82402,1.14545 -0.18117,0.4802 -0.27176,1.01884 -0.27176,1.61592 0,0.60487 0.0925,1.15519 0.27663,1.64903 0.18799,0.49091 0.46559,0.88247 0.83084,1.1737 0.36818,0.28734 0.82598,0.43149 1.37241,0.43149 z m 8.79351,1.19513 c -0.53864,0 -1.02759,-0.10133 -1.46688,-0.30389 -0.43831,-0.2065 -0.78701,-0.50358 -1.04513,-0.89124 -0.25909,-0.39059 -0.38767,-0.86298 -0.38767,-1.41624 0,-0.48701 0.0955,-0.88246 0.28734,-1.18441 0.19189,-0.30682 0.44805,-0.54643 0.76948,-0.71981 0.32143,-0.17337 0.67501,-0.30292 1.06266,-0.38766 0.39059,-0.0887 0.7841,-0.15876 1.17858,-0.21039 0.51624,-0.0662 0.93507,-0.11591 1.2565,-0.14903 0.32435,-0.037 0.56104,-0.0974 0.70811,-0.18214 0.15196,-0.0858 0.22695,-0.23279 0.22695,-0.44318 v -0.0438 c 0,-0.54644 -0.14903,-0.97111 -0.44805,-1.27306 -0.29513,-0.30292 -0.74318,-0.45389 -1.34514,-0.45389 -0.62337,0 -1.11233,0.13635 -1.4659,0.40908 -0.35455,0.27371 -0.6039,0.56494 -0.74708,0.87468 l -1.23993,-0.44318 c 0.2211,-0.51623 0.51622,-0.91851 0.88538,-1.20585 0.37208,-0.29123 0.77825,-0.4948 1.21753,-0.60876 0.44222,-0.11786 0.8776,-0.17727 1.30618,-0.17727 0.27272,0 0.58637,0.0332 0.9409,0.0993 0.35747,0.0633 0.70228,0.19384 1.03442,0.39351 0.33604,0.1987 0.61462,0.49967 0.83572,0.90194 0.2211,0.40228 0.33215,0.94092 0.33215,1.61592 v 5.60065 h -1.30618 v -1.1513 h -0.0662 c -0.0887,0.18409 -0.23571,0.38182 -0.44317,0.59221 -0.2065,0.21039 -0.48118,0.38961 -0.82403,0.53669 -0.34285,0.14805 -0.76169,0.2211 -1.2565,0.2211 z m 0.19968,-1.17273 c 0.51623,0 0.95162,-0.10133 1.30617,-0.30486 0.35747,-0.20261 0.6263,-0.46461 0.80747,-0.78507 0.18409,-0.32143 0.27662,-0.65942 0.27662,-1.01299 v -1.19513 c -0.0555,0.0662 -0.17727,0.12662 -0.36526,0.18214 -0.18409,0.0517 -0.39837,0.0974 -0.64188,0.13832 -0.23961,0.037 -0.47436,0.0702 -0.70325,0.0993 -0.225,0.0263 -0.40715,0.0487 -0.5474,0.0673 -0.33896,0.0438 -0.6565,0.11591 -0.95163,0.21526 -0.29221,0.0965 -0.52792,0.24156 -0.70909,0.43734 -0.17629,0.19189 -0.26493,0.45389 -0.26493,0.78604 0,0.4539 0.16752,0.79675 0.50357,1.02955 0.33896,0.22792 0.76947,0.34285 1.28961,0.34285 z m 9.77729,-7.5263 v 1.10649 h -4.40553 v -1.10649 z m -3.12176,-2.03669 h 1.30617 v 8.10196 c 0,0.36916 0.0536,0.64578 0.16071,0.82987 0.11103,0.18116 0.2513,0.30292 0.42079,0.36525 0.17336,0.0595 0.35551,0.0887 0.54739,0.0887 0.14415,0 0.26202,-0.008 0.35455,-0.0225 0.0925,-0.0185 0.16656,-0.0331 0.2211,-0.0438 l 0.26591,1.17273 c -0.0887,0.0341 -0.21233,0.0673 -0.3711,0.10031 -0.15779,0.037 -0.35941,0.0555 -0.60293,0.0555 -0.36915,0 -0.73051,-0.0799 -1.08506,-0.23864 -0.34967,-0.15876 -0.64188,-0.40032 -0.87371,-0.72468 -0.22888,-0.32435 -0.34382,-0.73441 -0.34382,-1.22824 z m 5.08636,10.53702 v -8.50033 h 1.30618 v 8.50033 z m 0.66429,-9.91754 c -0.25519,0 -0.47435,-0.0867 -0.65844,-0.26007 -0.18117,-0.17337 -0.27176,-0.38181 -0.27176,-0.62532 0,-0.24351 0.0906,-0.45195 0.27176,-0.62532 0.18409,-0.17338 0.40325,-0.26007 0.65844,-0.26007 0.25422,0 0.47241,0.0867 0.6526,0.26007 0.18507,0.17337 0.27663,0.38181 0.27663,0.62532 0,0.24351 -0.0915,0.45195 -0.27663,0.62532 -0.18019,0.17338 -0.39838,0.26007 -0.6526,0.26007 z m 6.48702,10.09481 c -0.76753,0 -1.44059,-0.18312 -2.02013,-0.54837 -0.57467,-0.36526 -1.02565,-0.87565 -1.35,-1.53312 -0.32045,-0.65649 -0.48117,-1.42403 -0.48117,-2.30162 0,-0.8854 0.16072,-1.65877 0.48117,-2.31917 0.32435,-0.66039 0.77533,-1.1737 1.35,-1.53895 0.57954,-0.36527 1.2526,-0.54741 2.02013,-0.54741 0.76754,0 1.43961,0.18214 2.01526,0.54741 0.57857,0.36525 1.02858,0.87856 1.35,1.53895 0.32436,0.6604 0.48702,1.43377 0.48702,2.31917 0,0.87759 -0.16266,1.64513 -0.48702,2.30162 -0.32142,0.65747 -0.77143,1.16786 -1.35,1.53312 -0.57565,0.36525 -1.24772,0.54837 -2.01526,0.54837 z m 0,-1.1737 c 0.58345,0 1.06267,-0.14903 1.43961,-0.44804 0.37598,-0.29903 0.65455,-0.69156 0.83572,-1.17858 0.18019,-0.48701 0.27078,-1.01494 0.27078,-1.58279 0,-0.56884 -0.0906,-1.09774 -0.27078,-1.58864 -0.18117,-0.49092 -0.45974,-0.88734 -0.83572,-1.19027 -0.37694,-0.30195 -0.85616,-0.45292 -1.43961,-0.45292 -0.58246,0 -1.06266,0.15097 -1.43864,0.45292 -0.37597,0.30293 -0.65455,0.69935 -0.83571,1.19027 -0.1802,0.4909 -0.27078,1.0198 -0.27078,1.58864 0,0.56785 0.0906,1.09578 0.27078,1.58279 0.18116,0.48702 0.45974,0.87955 0.83571,1.17858 0.37598,0.29901 0.85618,0.44804 1.43864,0.44804 z m 7.15228,-4.11721 v 5.11364 h -1.30617 v -8.50033 h 1.26136 v 1.3276 h 0.11104 c 0.1987,-0.43149 0.50161,-0.77826 0.90779,-1.04026 0.40519,-0.26591 0.92923,-0.39838 1.5711,-0.39838 0.57565,0 1.07923,0.11785 1.51072,0.35455 0.43247,0.23181 0.76753,0.58636 1.00812,1.06266 0.23961,0.47143 0.35941,1.06948 0.35941,1.79221 v 5.40195 h -1.30616 v -5.31331 c 0,-0.66721 -0.17338,-1.18735 -0.52013,-1.5604 -0.34675,-0.37598 -0.82306,-0.56396 -1.42793,-0.56396 -0.41689,0 -0.78994,0.0896 -1.11819,0.27079 -0.32435,0.18116 -0.58051,0.44415 -0.76947,0.7909 -0.18799,0.34675 -0.2815,0.76754 -0.2815,1.26234 z m 8.76138,5.20228 c -0.27274,0 -0.5065,-0.0984 -0.70228,-0.29319 -0.19578,-0.19577 -0.29318,-0.43051 -0.29318,-0.70324 0,-0.27273 0.0974,-0.50747 0.29318,-0.70325 0.19578,-0.19481 0.42954,-0.29318 0.70228,-0.29318 0.2737,0 0.50746,0.0984 0.70324,0.29318 0.19578,0.19578 0.29319,0.43052 0.29319,0.70325 0,0.18117 -0.0458,0.34675 -0.13831,0.49772 -0.0886,0.15196 -0.20844,0.27371 -0.35943,0.36527 -0.14804,0.0887 -0.31363,0.13344 -0.49869,0.13344 z m 0,-6.30877 c -0.27274,0 -0.5065,-0.0984 -0.70228,-0.29416 -0.19578,-0.19481 -0.29318,-0.42955 -0.29318,-0.70228 0,-0.27369 0.0974,-0.50746 0.29318,-0.70324 0.19578,-0.19578 0.42954,-0.29318 0.70228,-0.29318 0.2737,0 0.50746,0.0974 0.70324,0.29318 0.19578,0.19578 0.29319,0.42955 0.29319,0.70324 0,0.1802 -0.0458,0.34676 -0.13831,0.49774 -0.0886,0.15097 -0.20844,0.27272 -0.35943,0.36525 -0.14804,0.0887 -0.31363,0.13345 -0.49869,0.13345 z m 7.70163,6.22013 v -0.99643 l 3.74124,-4.09481 c 0.43831,-0.48019 0.80064,-0.89708 1.08409,-1.25065 0.28442,-0.35844 0.49481,-0.69448 0.63117,-1.00811 0.14026,-0.31657 0.21039,-0.64871 0.21039,-0.99546 0,-0.39838 -0.0965,-0.74415 -0.28831,-1.0354 -0.18799,-0.29123 -0.44611,-0.51622 -0.77435,-0.67499 -0.32826,-0.15877 -0.69741,-0.23767 -1.1065,-0.23767 -0.43539,0 -0.81623,0.0896 -1.14058,0.27079 -0.32046,0.17727 -0.56981,0.42662 -0.74708,0.74708 -0.17338,0.32142 -0.26007,0.6974 -0.26007,1.1289 h -1.30617 c 0,-0.66429 0.15292,-1.24677 0.45974,-1.74839 0.30584,-0.50162 0.72272,-0.89318 1.25065,-1.1737 0.53084,-0.28052 1.12695,-0.42078 1.78735,-0.42078 0.66428,0 1.25259,0.14026 1.7659,0.42078 0.51234,0.28052 0.91461,0.65844 1.20585,1.13474 0.29123,0.4763 0.43734,1.0052 0.43734,1.58864 0,0.41688 -0.0759,0.82403 -0.22695,1.2224 -0.14708,0.39546 -0.40617,0.83572 -0.77435,1.32273 -0.36526,0.48409 -0.87273,1.07436 -1.52241,1.77176 l -2.54611,2.72241 v 0.0886 h 5.26949 v 1.21752 z m 13.1328,0.15487 c -0.83376,0 -1.5448,-0.22694 -2.13117,-0.68084 -0.58636,-0.45779 -1.03442,-1.12013 -1.34512,-1.98701 -0.30974,-0.87079 -0.46462,-1.92176 -0.46462,-3.15391 0,-1.22533 0.15488,-2.27142 0.46462,-3.13832 0.31363,-0.87077 0.76461,-1.53506 1.35097,-1.99188 0.59026,-0.46169 1.29838,-0.69253 2.12532,-0.69253 0.82598,0 1.53216,0.23084 2.11948,0.69253 0.59027,0.45682 1.04027,1.12111 1.35001,1.99188 0.31364,0.8669 0.47046,1.91299 0.47046,3.13832 0,1.23215 -0.15488,2.28312 -0.46462,3.15391 -0.30974,0.86688 -0.75877,1.52922 -1.34513,1.98701 -0.58637,0.4539 -1.29642,0.68084 -2.1302,0.68084 z m 0,-1.21753 c 0.82598,0 1.46787,-0.39838 1.92566,-1.19513 0.45779,-0.79675 0.68571,-1.93345 0.68571,-3.4091 0,-0.98181 -0.10517,-1.81753 -0.31461,-2.50714 -0.20746,-0.69059 -0.50552,-1.21558 -0.89708,-1.57695 -0.38766,-0.36234 -0.85422,-0.54254 -1.39968,-0.54254 -0.81915,0 -1.45908,0.40325 -1.92077,1.21169 -0.46072,0.80455 -0.69156,1.94221 -0.69156,3.41494 0,0.98085 0.10325,1.81461 0.30973,2.5013 0.2065,0.68572 0.50358,1.2078 0.89124,1.56624 0.39059,0.35747 0.86104,0.53669 1.41136,0.53669 z m 11.8208,-1.06267 v -0.59805 c 0,-0.41298 0.0847,-0.7909 0.25422,-1.13376 0.17338,-0.34676 0.42468,-0.62435 0.75292,-0.83085 0.33214,-0.21039 0.73442,-0.31462 1.20682,-0.31462 0.47923,0 0.8815,0.10427 1.20585,0.31462 0.32532,0.2065 0.57077,0.48409 0.73636,0.83085 0.16558,0.34286 0.24936,0.72078 0.24936,1.13376 v 0.59805 c 0,0.41299 -0.0847,0.79286 -0.25521,1.1406 -0.16558,0.34285 -0.41297,0.61947 -0.74123,0.82987 -0.32435,0.20648 -0.72273,0.30973 -1.19513,0.30973 -0.4802,0 -0.88343,-0.10325 -1.21266,-0.30973 -0.32825,-0.2104 -0.57662,-0.48702 -0.74708,-0.82987 -0.16948,-0.34774 -0.25422,-0.72761 -0.25422,-1.1406 z m 1.1289,-0.59805 v 0.59805 c 0,0.34286 0.0808,0.65163 0.2435,0.92436 0.16266,0.26883 0.44319,0.40422 0.84156,0.40422 0.38669,0 0.6604,-0.13539 0.81916,-0.40422 0.16168,-0.27273 0.2435,-0.5815 0.2435,-0.92436 v -0.59805 c 0,-0.34285 -0.078,-0.6487 -0.23279,-0.9185 -0.15486,-0.27273 -0.43149,-0.4091 -0.82987,-0.4091 -0.38767,0 -0.66624,0.13637 -0.83571,0.4091 -0.16656,0.2698 -0.24935,0.57565 -0.24935,0.9185 z m -6.77339,-5.88799 v -0.59806 c 0,-0.41298 0.0847,-0.7909 0.25422,-1.13376 0.17338,-0.34772 0.42468,-0.62435 0.75292,-0.83084 0.33215,-0.2104 0.73345,-0.31559 1.20585,-0.31559 0.4802,0 0.88247,0.10517 1.20682,0.31559 0.32435,0.20649 0.5698,0.48312 0.73637,0.83084 0.16558,0.34286 0.24837,0.72078 0.24837,1.13376 v 0.59806 c 0,0.41299 -0.0847,0.79286 -0.25422,1.13961 -0.16655,0.34383 -0.41299,0.62046 -0.74123,0.83084 -0.32532,0.2065 -0.72371,0.30974 -1.19611,0.30974 -0.47922,0 -0.88344,-0.10325 -1.21169,-0.30974 -0.32825,-0.21038 -0.57759,-0.48701 -0.74708,-0.83084 -0.16948,-0.34675 -0.25422,-0.72662 -0.25422,-1.13961 z m 1.1289,-0.59806 v 0.59806 c 0,0.34286 0.0808,0.65163 0.24351,0.92435 0.16168,0.26883 0.4422,0.40423 0.84058,0.40423 0.38767,0 0.66039,-0.1354 0.81916,-0.40423 0.16266,-0.27272 0.2435,-0.58149 0.2435,-0.92435 v -0.59806 c 0,-0.34286 -0.077,-0.64869 -0.23181,-0.91851 -0.15584,-0.27272 -0.43248,-0.40908 -0.83085,-0.40908 -0.38669,0 -0.66526,0.13636 -0.83572,0.40908 -0.16558,0.26982 -0.24837,0.57565 -0.24837,0.91851 z m -0.70909,9.20943 7.79222,-11.33377 h 1.26234 l -7.79222,11.33377 z"
     fill="#202020"
     id="path2"
     style="stroke-width:0.974027" />
  <circle
     cx="105.80299"
     cy="89.500092"
     r="64.306999"
     stroke="#0082ff"
     stroke-width="25.8954"
     id="circle2" />
  <mask
     id="path-6-inside-1_1_921"
     fill="#ffffff">
    <path
       d="m 89.5,16.2969 c -15.1532,0 -30.0583,3.8474 -43.3183,11.1815 C 32.9217,34.8126 21.7409,45.3935 13.6873,58.2293 5.63363,71.065 0.970851,85.7355 0.135952,100.866 c -0.8349,15.13 2.185418,30.224 8.777868,43.868 L 89.5,105.797 Z"
       id="path3" />
  </mask>
  <path
     d="m 89.5,16.2969 c -15.1532,0 -30.0583,3.8474 -43.3183,11.1815 C 32.9217,34.8126 21.7409,45.3935 13.6873,58.2293 5.63363,71.065 0.970851,85.7355 0.135952,100.866 c -0.8349,15.13 2.185418,30.224 8.777868,43.868 L 89.5,105.797 Z"
     stroke="#faa002"
     stroke-width="60"
     mask="url(#path-6-inside-1_1_921)"
     id="path4"
     transform="matrix(0.86318124,0,0,0.86318124,28.548275,-1.8218928)" />
  <circle
     cx="105.80299"
     cy="89.243729"
     r="51.359283"
     fill="#ffffff"
     id="circle4"
     style="stroke-width:0.863181" />
  <circle
     cx="105.80299"
     cy="89.243729"
     r="51.359283"
     stroke="#0082ff"
     id="circle5"
     style="stroke-width:0.863181" />
</svg>
