<?xml version="1.0" encoding="UTF-8" standalone="no"?>
<svg
   width="20.6532"
   height="19.800961"
   viewBox="0 0 20.6532 19.800961"
   fill="none"
   version="1.1"
   id="svg30"
   xmlns="http://www.w3.org/2000/svg"
   xmlns:svg="http://www.w3.org/2000/svg">
  <g
     clip-path="url(#clip0_1_1123)"
     id="g14"
     transform="translate(-60.489,-2.46924)">
    <path
       d="M 77.966961,5.2039907 63.340904,19.535905 h 4.552452 l 1.336189,-1.899762 7.56807,-10.7679384 z"
       fill="url(#paint2_linear_1_1123)"
       id="path8"
       style="fill:url(#paint2_linear_1_1123);stroke-width:0.723829" />
    <path
       d="M 73.655834,5.2039907 73.188312,5.8540908 65.848249,16.051029 63.340904,19.535905 77.966961,5.2039907 Z"
       fill="url(#paint3_linear_1_1123)"
       id="path9"
       style="fill:url(#paint3_linear_1_1123);stroke-width:0.723829" />
    <path
       d="m 76.519085,17.033121 -0.188919,-0.267528 c -0.15765,-0.223301 -0.41403,-0.355834 -0.68619,-0.355834 h -3.44065 c -0.127322,0 -0.226197,0.07557 -0.273318,0.17618 l 6.359709,2.949894 z"
       fill="#f69300"
       id="path10"
       style="stroke-width:0.723829" />
    <path
       d="m 71.930008,16.586084 c -0.04191,0.08954 -0.04249,0.198908 0.01976,0.294236 l 0.70653,1.075176 h 0.0017 l 1.03913,1.580482 h 4.593131 L 71.93055,16.586084 Z"
       fill="url(#paint4_linear_1_1123)"
       id="path11"
       style="fill:url(#paint4_linear_1_1123);stroke-width:0.723829" />
    <path
       d="M 69.862244,7.8566804 68.773098,6.2575895 68.055566,5.2045191 h -4.493749 l 6.230071,3.0650191 c 0.12211,-0.091297 0.168001,-0.2692283 0.07094,-0.4128578 z"
       fill="url(#paint5_linear_1_1123)"
       id="path12"
       style="fill:url(#paint5_linear_1_1123);stroke-width:0.723829" />
    <path
       d="m 63.56131,5.2040414 1.917135,2.7638047 c 0.0081,0.011046 0.01571,0.020354 0.02381,0.0314 0.158735,0.2075943 0.404765,0.3302833 0.667587,0.3302833 h 3.442388 c 0.07036,0 0.130217,-0.024422 0.179654,-0.061055 L 63.561889,5.2034623 Z"
       fill="#f69300"
       id="path13"
       style="stroke-width:0.723829" />
  </g>
  <defs
     id="defs30">
    <linearGradient
       id="paint2_linear_1_1123"
       x1="76.1558"
       y1="7.7833099"
       x2="68.327202"
       y2="16.8402"
       gradientUnits="userSpaceOnUse"
       gradientTransform="matrix(0.72382932,0,0,0.72382932,19.557193,3.416154)">
      <stop
         stop-color="#FFAC00"
         id="stop23" />
      <stop
         offset="1"
         stop-color="#FE7801"
         id="stop24" />
    </linearGradient>
    <linearGradient
       id="paint3_linear_1_1123"
       x1="60.488998"
       y1="12.3704"
       x2="80.695503"
       y2="12.3704"
       gradientUnits="userSpaceOnUse"
       gradientTransform="matrix(0.72382932,0,0,0.72382932,19.557193,3.416154)">
      <stop
         stop-color="#FFCE00"
         id="stop25" />
      <stop
         offset="1"
         stop-color="#FFB003"
         id="stop26" />
    </linearGradient>
    <linearGradient
       id="paint4_linear_1_1123"
       x1="72.314201"
       y1="20.232901"
       x2="81.141403"
       y2="20.232901"
       gradientUnits="userSpaceOnUse"
       gradientTransform="matrix(0.72382932,0,0,0.72382932,19.557193,3.416154)">
      <stop
         stop-color="#FE8B01"
         id="stop27" />
      <stop
         offset="1"
         stop-color="#FE7801"
         id="stop28" />
    </linearGradient>
    <linearGradient
       id="paint5_linear_1_1123"
       x1="60.7934"
       y1="4.5875201"
       x2="69.571602"
       y2="4.5875201"
       gradientUnits="userSpaceOnUse"
       gradientTransform="matrix(0.72382932,0,0,0.72382932,19.557193,3.416154)">
      <stop
         stop-color="#FFCE00"
         id="stop29" />
      <stop
         offset="1"
         stop-color="#FFC101"
         id="stop30" />
    </linearGradient>
    <clipPath
       id="clip0_1_1123">
      <rect
         width="96"
         height="24"
         fill="#ffffff"
         transform="translate(0.847656)"
         id="rect30"
         x="0"
         y="0" />
    </clipPath>
  </defs>
</svg>
